<svg id="svg" xmlns="http://www.w3.org/2000/svg" xmlns:xlink="http://www.w3.org/1999/xlink" width="400" height="309.05377808032677" viewBox="0, 0, 400,309.05377808032677"><g id="svgg"><path id="path0" d="M269.843 0.461 C 241.167 2.145,211.205 15.640,184.159 39.053 L 181.933 40.980 181.917 71.069 L 181.902 101.157 183.534 98.068 C 204.955 57.528,247.829 32.535,287.521 37.449 C 346.446 44.744,380.696 108.011,354.389 160.970 C 331.475 207.100,274.139 222.925,230.675 195.116 C 217.730 186.833,211.180 179.277,198.284 157.744 C 195.129 152.475,191.576 146.716,190.389 144.947 C 158.752 97.771,92.258 85.833,45.065 118.855 C -8.193 156.120,-14.996 232.222,30.811 278.317 C 66.698 314.429,122.587 319.187,165.146 289.753 C 168.555 287.396,172.657 284.261,172.790 283.912 C 172.857 283.737,172.879 270.851,172.841 255.276 L 172.771 226.957 171.591 229.135 C 157.470 255.202,127.806 273.697,102.110 272.456 C 52.665 270.068,22.113 218.069,44.254 173.984 C 64.773 133.127,120.047 123.982,152.076 156.145 C 158.198 162.292,162.373 168.101,171.269 182.845 C 186.927 208.800,199.674 221.130,222.769 232.659 C 297.856 270.143,387.774 222.272,398.900 138.888 C 409.061 62.726,346.798 -4.059,269.843 0.461 " stroke="none" fill="#CC0000" fill-rule="evenodd"></path></g></svg>